<svg xmlns:dc="http://purl.org/dc/elements/1.1/" xmlns:cc="http://creativecommons.org/ns#" xmlns:rdf="http://www.w3.org/1999/02/22-rdf-syntax-ns#" xmlns:svg="http://www.w3.org/2000/svg" xmlns="http://www.w3.org/2000/svg" xmlns:sodipodi="http://sodipodi.sourceforge.net/DTD/sodipodi-0.dtd" xmlns:inkscape="http://www.inkscape.org/namespaces/inkscape" version="1.1" x="0px" y="0px" viewBox="0 0 100 125"><g transform="translate(0,-952.36218)"><path d="m 47,966.36215 0,3.15625 c -15.79357,1.43034 -28.43017,14.05429 -29.875,29.84375 l -3.125,0 0,6.00005 3.125,0 c 1.41767,15.8181 14.06096,28.4428 29.875,29.875 l 0,3.125 6,0 0,-3.125 c 15.81403,-1.4322 28.457329,-14.0569 29.875,-29.875 l 3.125,0 0,-6.00005 -3.125,0 C 81.430169,983.57269 68.79357,970.94874 53,969.5184 l 0,-3.15625 z m 3,19.03125 c 9.42437,0 17,7.57563 17,17 0,9.4244 -7.57563,17 -17,17 -9.424369,0 -17,-7.5756 -17,-17 0,-9.42437 7.575631,-17 17,-17 z" style="text-indent:0;text-transform:none;direction:ltr;block-progression:tb;baseline-shift:baseline;color:#000000;enable-background:accumulate;" fill="#000000" fill-opacity="1" stroke="none" marker="none" visibility="visible" display="inline" overflow="visible"/></g><text x="0" y="115" fill="#000000" font-size="5px" font-weight="bold" font-family="'Helvetica Neue', Helvetica, Arial-Unicode, Arial, Sans-serif"></text><text x="0" y="120" fill="#000000" font-size="5px" font-weight="bold" font-family="'Helvetica Neue', Helvetica, Arial-Unicode, Arial, Sans-serif"></text></svg>